<svg version="1.1" id="Layer_1" xmlns="http://www.w3.org/2000/svg" xmlns:xlink="http://www.w3.org/1999/xlink" x="0px" y="0px"
	 width="100%" viewBox="0 0 508 306" enable-background="new 0 0 508 306" xml:space="preserve">
<path fill="#FBFCF9" opacity="1.000000" stroke="none" 
	d="
M267.000000,307.000000 
	C259.645752,307.000000 252.291504,307.000000 244.652832,306.677368 
	C249.530685,304.464081 254.692963,302.573425 260.005951,301.010956 
	C264.845795,304.062103 264.723389,300.675842 265.051727,297.362579 
	C267.146790,295.724182 269.058197,294.351807 271.044739,293.342316 
	C276.496918,297.316620 278.540588,296.985443 279.063446,292.970245 
	C276.410767,292.970245 273.695190,292.970245 271.120667,292.665100 
	C281.607361,283.309998 288.180206,271.924500 291.525421,258.719604 
	C294.178680,248.246155 296.315369,237.642914 298.792053,227.123367 
	C301.718445,214.693939 304.763855,202.292542 308.078369,190.014465 
	C309.192993,190.051514 309.986908,189.953110 310.780853,189.854706 
	C309.908661,189.236618 309.036499,188.618530 308.135010,187.607910 
	C311.074097,174.476959 314.042480,161.738556 317.331329,149.047836 
	C318.423553,151.959152 319.149658,154.651230 322.560730,155.862579 
	C323.464233,156.183426 323.545288,158.820419 324.132904,160.836243 
	C321.957550,160.674561 320.714722,160.582184 318.364777,160.407532 
	C319.269836,162.595093 319.897491,164.112167 320.525146,165.629242 
	C321.864349,164.732758 323.449127,164.053894 324.483154,162.886993 
	C325.905884,161.281448 326.912079,159.306732 328.714905,156.542252 
	C328.714905,158.617035 328.911041,159.599808 328.683716,160.472198 
	C326.942902,167.152390 324.879730,173.759171 323.420837,180.497894 
	C322.663971,183.993973 322.187622,186.955795 317.774414,187.370743 
	C316.834076,187.459167 315.666473,189.037811 315.328217,190.150269 
	C315.126862,190.812439 316.231873,192.581696 316.932587,192.692123 
	C321.201721,193.364868 320.098633,196.201996 319.569763,198.750595 
	C318.397919,204.397614 317.123627,210.023376 315.891266,215.657822 
	C314.714661,221.037354 313.538269,226.416916 312.361755,231.796478 
	C311.799438,231.918182 311.237122,232.039886 310.674805,232.161591 
	C309.810699,229.596024 308.946594,227.030472 307.564758,222.927612 
	C304.354492,227.075897 301.629425,230.460083 299.189301,234.038544 
	C299.014252,234.295273 300.859833,236.759033 301.873596,236.839493 
	C304.749725,237.067734 306.967438,237.486099 308.105011,240.649384 
	C309.300720,243.974472 308.724243,246.513763 306.625824,249.364014 
	C305.165771,251.347198 304.263000,254.144974 304.142853,256.628754 
	C303.866241,262.346588 307.140533,264.699127 312.746429,263.645264 
	C315.169952,263.189697 317.680786,263.032349 320.152649,263.026611 
	C340.479218,262.979523 360.806305,263.045959 381.132111,262.912811 
	C382.759216,262.902161 384.378235,261.656433 386.423340,260.850830 
	C388.896851,260.808502 390.948059,260.899902 393.083740,261.374084 
	C393.995056,262.167511 394.865173,263.000458 395.641754,262.920898 
	C401.000153,262.371521 406.712921,262.599609 411.592194,260.714966 
	C418.079376,258.209229 426.071533,259.309082 431.055084,253.046707 
	C432.373566,251.389893 433.665283,249.694916 435.135956,248.179169 
	C439.891235,243.278198 444.724060,238.452454 450.097229,233.021347 
	C453.408051,234.589035 454.144531,230.236237 454.712433,227.721756 
	C456.534943,219.652191 457.633301,211.419708 459.051483,203.257111 
	C459.177979,202.529007 459.596893,201.851715 460.457520,199.720764 
	C462.639008,204.291321 464.295349,207.761581 466.254211,211.865707 
	C469.844696,208.416809 469.426758,206.184219 467.381317,203.871826 
	C466.297363,202.646408 464.395264,201.273376 464.459534,200.050934 
	C464.777161,194.008652 461.370544,187.725159 465.480713,181.886185 
	C465.878479,181.321136 465.623108,180.301880 465.686310,179.494690 
	C465.849518,177.410065 466.021332,175.326111 466.225616,172.797653 
	C468.540833,174.176453 469.878265,174.972946 471.909729,176.182739 
	C471.705688,174.307617 471.737823,173.189819 471.446869,172.163635 
	C469.825867,166.446564 466.997162,160.765823 471.333954,155.000244 
	C471.602844,154.642746 471.664337,154.064957 471.674500,153.586517 
	C471.946472,140.761017 477.522858,129.234787 480.560211,117.086990 
	C482.427856,109.617149 488.736664,103.005295 485.049011,94.410248 
	C484.816528,93.868408 485.009949,93.074928 485.175507,92.443100 
	C485.912079,89.632080 486.725647,86.841339 487.483582,84.035759 
	C488.937714,78.653152 491.521454,73.262642 491.508270,67.880615 
	C491.493744,61.936432 492.295837,56.993423 497.299713,52.661438 
	C495.073120,51.965546 493.529785,51.483196 491.789093,50.896561 
	C491.339600,50.621853 491.141388,50.402679 490.997253,49.756355 
	C490.849976,48.446632 490.702484,47.515327 490.667023,47.291451 
	C487.570587,47.465458 484.858704,47.912685 482.202637,47.691078 
	C479.017792,47.425354 475.885590,46.113865 472.721771,46.079941 
	C456.579773,45.906834 440.434906,46.006084 424.291046,45.989845 
	C422.800537,45.988346 421.125366,46.263721 419.848938,45.700790 
	C409.520111,41.145584 399.382019,45.878887 389.167511,46.187599 
	C388.609344,46.204468 388.060822,46.846565 387.524200,47.221100 
	C382.657715,50.617580 377.844910,54.094429 372.907410,57.384220 
	C370.791809,58.793827 368.528046,60.156597 366.134064,60.926067 
	C363.462158,61.784863 361.148499,62.344646 360.771851,65.828064 
	C360.692139,66.565056 358.199188,67.474701 356.812988,67.483406 
	C355.898804,67.489151 354.975372,66.025612 354.056061,65.219948 
	C353.749542,65.398537 353.443024,65.577118 353.136505,65.755707 
	C353.982605,67.954803 354.828705,70.153908 355.341675,71.487206 
	C351.174957,79.336044 347.293884,86.646782 343.295929,94.177727 
	C339.278931,89.192276 338.899567,83.109184 341.898254,78.543015 
	C344.725922,74.237190 343.225372,67.881973 337.767700,65.846588 
	C337.200928,74.044243 336.600922,81.887283 336.184723,89.740067 
	C336.129272,90.786034 337.197144,91.846695 337.400269,92.963226 
	C337.624542,94.195992 337.962006,95.851761 337.367493,96.716385 
	C334.026703,101.575096 333.383240,106.312035 334.727264,112.332283 
	C336.549164,120.493027 336.282166,128.906601 333.157928,137.179489 
	C331.356049,141.950836 331.358307,147.403488 330.419891,153.366623 
	C328.027710,151.337189 326.211731,149.796616 324.395782,148.256042 
	C324.815857,148.222748 325.235962,148.189468 325.656036,148.156174 
	C325.960571,144.019547 326.374207,139.883667 326.401917,135.745178 
	C326.404694,135.328598 324.072418,134.896378 321.899017,134.156647 
	C323.758331,139.726913 323.003937,143.354004 318.005829,144.602570 
	C319.892242,136.418930 321.782806,128.631653 324.034729,120.999603 
	C328.003326,123.262894 328.598694,120.037727 328.632477,118.129021 
	C328.676880,115.619194 331.409302,111.518288 325.856201,110.583298 
	C333.869324,75.039955 341.914429,39.905632 350.030334,4.462130 
	C348.478516,4.098393 347.395081,3.621689 346.312286,3.623200 
	C318.677063,3.661778 291.041840,3.738884 263.406677,3.833427 
	C234.745560,3.931480 209.534668,24.121090 203.113358,52.090027 
	C192.653015,97.651596 182.205017,143.216019 171.729736,188.774139 
	C164.983398,218.114685 158.154724,247.436371 151.453125,276.787079 
	C149.160980,286.825836 147.143158,296.927216 145.000000,307.000000 
	C97.026253,307.000000 49.052505,307.000000 1.039379,307.000000 
	C1.039379,205.082047 1.039379,103.164085 1.039379,1.000000 
	C117.354111,1.000000 233.708405,1.000000 350.620911,1.164645 
	C351.452759,1.219530 351.726379,1.109769 352.000000,1.000004 
	C404.277435,1.000000 456.554901,1.000000 509.000000,1.000000 
	C509.000000,85.020821 509.000000,169.041748 508.667175,253.582611 
	C508.556274,255.068375 508.778137,256.034180 509.000000,257.000000 
	C509.000000,273.641235 509.000000,290.282440 509.000000,307.000000 
	C430.312469,307.000000 351.624878,307.000000 272.474792,306.622437 
	C273.833191,304.894592 275.654114,303.544250 277.313324,302.313873 
	C272.746094,299.549866 267.715546,301.580902 267.000000,307.000000 
M479.822754,144.000107 
	C481.897217,143.081161 485.360565,142.556366 485.756561,141.161087 
	C486.576843,138.270615 486.014526,134.872223 485.451782,131.786438 
	C485.311890,131.019226 483.036804,130.456985 481.669464,130.212204 
	C481.267548,130.140289 480.016144,131.914459 480.160980,132.114868 
	C483.306183,136.466949 479.672302,140.087585 478.242554,144.088089 
	C477.165436,145.487442 475.568848,146.761719 475.191315,148.329559 
	C474.933655,149.399765 476.378204,150.879868 477.061707,152.176712 
	C477.707794,152.000534 478.353912,151.824371 479.000000,151.648193 
	C479.000000,149.098999 479.000000,146.549805 479.822754,144.000107 
M475.963531,257.776276 
	C481.317291,260.733307 486.939362,262.123871 492.779938,259.604553 
	C495.594940,258.390289 498.077454,256.405212 500.882874,255.492218 
	C501.385254,256.182861 501.887604,256.873535 502.389954,257.564209 
	C502.790649,257.099609 503.191345,256.635040 503.592072,256.170471 
	C502.658844,255.675262 501.725616,255.180054 500.710052,253.970306 
	C501.625336,252.029510 502.718262,250.151016 503.424622,248.136948 
	C506.208832,240.198547 503.005463,231.307816 495.916626,226.962143 
	C488.053131,222.141571 479.290985,223.243149 472.389069,230.278488 
	C465.146118,239.427368 466.375305,250.169235 475.963531,257.776276 
M183.053680,50.186234 
	C156.053833,50.202099 129.048660,49.888630 102.055626,50.325260 
	C74.342842,50.773533 54.255695,64.108482 43.471916,89.451408 
	C38.514492,101.101830 36.316868,113.984291 33.393055,126.431450 
	C24.834650,162.865982 16.529833,199.360123 8.150393,235.836578 
	C6.301637,243.884399 4.554900,251.955627 2.708271,260.253876 
	C4.263976,260.414398 5.234202,260.601959 6.204408,260.601868 
	C35.370506,260.599060 64.545013,261.005280 93.700172,260.431213 
	C119.456238,259.924042 143.249008,239.031769 148.867493,213.865433 
	C156.008347,181.880157 163.569733,149.988876 170.912674,118.048538 
	C175.758896,96.968414 180.563126,75.878517 185.303177,54.774364 
	C185.661331,53.179726 187.587387,50.753651 183.053680,50.186234 
M317.212952,269.459259 
	C316.543854,270.359467 315.874756,271.259705 314.957703,272.493530 
	C319.490784,271.925781 323.184479,271.082031 326.882568,271.062195 
	C349.864471,270.938721 372.849915,271.175201 395.827820,270.848450 
	C400.288116,270.785004 404.720520,268.764740 409.165802,267.647095 
	C409.027100,267.079559 408.888428,266.512024 408.749756,265.944489 
	C406.097534,264.581757 403.671539,264.227417 401.023804,266.741882 
	C399.765625,267.936676 397.696869,268.895630 395.988983,268.905823 
	C372.674133,269.045197 349.358185,268.997131 326.042511,269.002930 
	C323.315216,269.003601 320.587952,269.050140 317.212952,269.459259 
M353.663818,33.990654 
	C359.851471,31.086096 361.897736,27.399441 359.692841,20.686380 
	C359.039978,18.698675 355.592621,17.628822 353.425842,16.138365 
	C352.617371,17.721838 351.209747,19.270267 351.114655,20.895466 
	C350.847839,25.457806 351.122101,30.051796 351.182953,34.633301 
	C351.863831,34.606731 352.544739,34.580162 353.663818,33.990654 
M477.927582,217.475220 
	C475.626984,218.318726 472.911743,218.688812 471.191803,220.195251 
	C470.260193,221.011215 471.025818,223.764877 471.025818,225.719528 
	C473.785431,224.926651 475.700775,224.773636 477.120697,223.854904 
	C478.498596,222.963318 479.492798,221.358368 480.349091,219.888214 
	C480.509766,219.612350 479.226501,218.495483 477.927582,217.475220 
M464.768341,231.026291 
	C463.511261,231.367584 462.121490,231.479370 461.031433,232.109558 
	C459.731567,232.861053 458.836517,234.368912 457.505737,235.000015 
	C453.913666,236.703415 454.521820,238.528534 456.807007,240.885498 
	C460.514221,238.462234 465.211548,237.341431 464.768341,231.026291 
M488.226593,264.054230 
	C486.473755,263.760895 484.720917,263.467590 482.293640,263.061401 
	C482.127411,264.835266 481.974976,266.461700 481.822540,268.088165 
	C483.984924,267.958984 486.193573,268.029297 488.273987,267.546814 
	C488.738098,267.439148 488.751678,265.389069 488.226593,264.054230 
M294.014954,262.701477 
	C294.239349,264.760773 294.463776,266.820038 294.688171,268.879303 
	C296.057892,267.942902 298.256592,267.259186 298.634216,266.020355 
	C299.579956,262.917816 297.334686,262.147156 294.014954,262.701477 
M313.241943,202.473541 
	C314.624390,199.767059 316.275146,197.069580 312.708923,192.829193 
	C311.739594,197.455719 311.014618,200.915878 310.289673,204.376022 
	C310.832245,204.710190 311.374817,205.044357 311.917389,205.378525 
	C312.252228,204.634171 312.587036,203.889801 313.241943,202.473541 
M319.124603,181.595367 
	C319.488922,181.854385 319.853210,182.113419 320.217529,182.372452 
	C321.076904,178.482742 324.038239,174.693176 319.631134,170.501968 
	C319.428406,173.935364 319.225647,177.368759 319.124603,181.595367 
M504.615540,233.465698 
	C504.777985,233.463974 505.078979,233.484085 505.083191,233.457413 
	C505.475952,230.965546 505.846008,228.470078 506.217590,225.974869 
	C505.497528,225.887817 504.777435,225.800781 504.057373,225.713730 
	C504.064240,228.134613 504.071106,230.555511 504.615540,233.465698 
M307.765686,272.205231 
	C306.514221,271.196167 305.262756,270.187073 304.011292,269.178009 
	C303.455017,270.188751 302.898773,271.199493 302.342529,272.210266 
	C304.032593,272.430023 305.722626,272.649750 307.765686,272.205231 
M308.076904,214.316452 
	C308.794342,214.730255 309.511810,215.144043 310.229248,215.557846 
	C310.454742,213.584702 310.680237,211.611557 310.905731,209.638412 
	C310.343628,209.572479 309.781525,209.506561 309.219421,209.440643 
	C308.820801,210.809372 308.422180,212.178101 308.076904,214.316452 
M286.805328,277.700714 
	C286.345001,278.573303 285.884674,279.445923 285.424347,280.318542 
	C286.338348,280.427979 287.252380,280.537415 288.166382,280.646820 
	C287.937164,279.621552 287.707916,278.596313 286.805328,277.700714 
M353.304871,58.865131 
	C353.602325,59.762203 353.899811,60.659279 354.197296,61.556355 
	C354.727509,61.044960 355.257690,60.533562 355.787903,60.022160 
	C355.120880,59.470398 354.453888,58.918633 353.304871,58.865131 
M473.880188,270.796570 
	C473.006348,270.262146 472.132538,269.727722 471.258698,269.193298 
	C471.024384,269.647461 470.790039,270.101624 470.555725,270.555786 
	C471.436554,270.686279 472.317383,270.816772 473.880188,270.796570 
M473.260040,262.933655 
	C473.724396,263.555756 474.188721,264.177887 474.653046,264.800018 
	C474.965271,264.512268 475.277496,264.224548 475.589722,263.936829 
	C474.954895,263.442017 474.320099,262.947205 473.260040,262.933655 
M478.750153,165.013412 
	C478.597931,164.176834 478.445740,163.340256 478.293549,162.503677 
	C477.833221,162.677872 477.372894,162.852081 476.912598,163.026276 
	C477.378693,163.843781 477.844818,164.661285 478.750153,165.013412 
M319.888428,157.649338 
	C319.621063,157.359375 319.353729,157.069397 319.086365,156.779434 
	C318.895782,157.305756 318.705200,157.832077 318.514618,158.358398 
	C318.922791,158.300583 319.330994,158.242767 319.888428,157.649338 
M372.599823,49.801296 
	C372.211273,49.797005 371.822693,49.792709 371.434143,49.788418 
	C371.432556,49.949646 371.420105,50.250996 371.431000,50.251842 
	C371.817596,50.281834 372.206421,50.283676 372.599823,49.801296 
M491.292419,218.440506 
	C491.010925,218.709015 490.729401,218.977539 490.447876,219.246048 
	C490.559174,219.362579 490.761169,219.586578 490.768738,219.580170 
	C491.065674,219.329575 491.344849,219.057938 491.292419,218.440506 
z"/>
<path fill="#F37022" opacity="1.000000" stroke="none" 
	d="
M235.000000,307.000000 
	C234.250000,307.000000 233.500000,307.000000 232.276138,306.608032 
	C229.962692,305.818909 228.124222,305.082123 226.283356,305.076080 
	C202.121429,304.996704 177.959152,305.020477 153.796967,305.018372 
	C152.023117,305.018219 150.249268,305.018341 148.341705,305.018341 
	C148.261841,303.511841 148.029587,302.659088 148.203842,301.899628 
	C152.111267,284.869324 156.128891,267.864136 159.986710,250.822708 
	C163.149918,236.849716 166.046494,222.816315 169.221725,208.846161 
	C172.057449,196.369827 175.060867,183.930649 178.108765,171.504150 
	C178.841888,168.515152 180.291153,165.697311 180.971725,162.700974 
	C181.959579,158.351669 182.226776,153.824585 183.389542,149.532684 
	C184.797241,144.336777 187.180313,139.396545 188.470230,134.179764 
	C189.709259,129.168655 189.840897,123.893440 190.897324,118.825623 
	C193.787552,104.960663 196.905243,91.143082 199.940765,77.308472 
	C200.609177,74.262184 201.522964,71.253227 201.959457,68.175423 
	C203.833084,54.964218 207.569733,42.407742 215.723343,31.663738 
	C218.739197,27.689745 223.067352,24.740519 226.403641,20.975363 
	C235.751556,10.425834 248.366272,6.684752 261.413391,6.240838 
	C286.712738,5.380055 312.062256,5.946904 337.390472,6.049420 
	C340.234161,6.060929 343.074585,6.892826 345.865906,7.336244 
	C345.170410,12.484459 344.858795,16.879826 343.942810,21.145411 
	C341.910095,30.611683 339.667419,40.036114 337.324005,49.431110 
	C336.093353,54.364742 334.197662,59.139225 333.084503,64.093910 
	C331.168884,72.620567 329.786407,81.266846 327.879883,89.795784 
	C326.554169,95.726639 324.461273,101.487946 323.177734,107.425865 
	C320.600372,119.349129 318.656860,131.414932 315.881805,143.288696 
	C311.203583,163.305557 305.986267,183.195801 301.185242,203.184830 
	C298.675964,213.632263 296.566040,224.175720 294.284515,234.677719 
	C293.166870,239.822220 291.893707,244.940811 291.000549,250.124481 
	C289.330536,259.816681 285.956085,268.823669 280.570831,277.032043 
	C276.834167,282.727570 272.695282,288.034851 267.083435,292.175293 
	C260.121613,297.311707 253.016068,301.737885 244.224121,303.154663 
	C241.025909,303.670013 238.067703,305.674774 235.000000,307.000000 
M231.751953,168.977020 
	C247.247177,168.976654 262.759735,169.390152 278.227844,168.742218 
	C283.356110,168.527390 289.570587,166.887131 293.159607,163.584900 
	C298.780182,158.413391 302.253143,151.216766 303.543671,143.184448 
	C304.394470,137.889175 306.844238,132.849747 307.683807,127.553970 
	C308.722015,121.005287 308.854340,114.127441 304.728943,108.445282 
	C299.624695,101.414818 291.421112,99.545609 283.623596,99.252708 
	C265.820801,98.584000 247.975677,99.031113 230.147812,99.064232 
	C228.844299,99.066650 227.544815,99.419098 226.237579,99.550247 
	C221.903244,99.985115 217.566208,100.393181 212.419418,100.889763 
	C211.848450,101.733467 210.068176,103.359604 209.544983,105.321045 
	C207.806046,111.840179 206.517181,118.479439 205.059021,125.073357 
	C203.005554,134.359375 200.965851,143.648438 198.896317,152.930862 
	C198.320038,155.515625 197.575256,158.064621 197.053238,160.659302 
	C195.622177,167.772278 194.459534,174.945786 192.798416,182.003021 
	C192.039993,185.225143 190.071060,188.151093 189.190369,191.359390 
	C188.525116,193.782913 188.671280,196.439102 188.537155,198.995972 
	C188.363953,202.297455 188.271362,205.603134 188.144073,208.907013 
	C191.866501,209.045868 195.588547,209.255051 199.311600,209.274506 
	C200.252533,209.279434 201.281128,208.824478 202.126526,208.334335 
	C213.684250,201.633591 220.876816,191.959763 221.946655,178.375031 
	C222.468155,171.753006 224.695816,169.157684 231.751953,168.977020 
z"/>
<path fill="#E07E44" opacity="1.000000" stroke="none" 
	d="
M235.449982,307.000000 
	C238.067703,305.674774 241.025909,303.670013 244.224121,303.154663 
	C253.016068,301.737885 260.121613,297.311707 267.083435,292.175293 
	C272.695282,288.034851 276.834167,282.727570 280.570831,277.032043 
	C285.956085,268.823669 289.330536,259.816681 291.000549,250.124481 
	C291.893707,244.940811 293.166870,239.822220 294.284515,234.677719 
	C296.566040,224.175720 298.675964,213.632263 301.185242,203.184830 
	C305.986267,183.195801 311.203583,163.305557 315.881805,143.288696 
	C318.656860,131.414932 320.600372,119.349129 323.177734,107.425865 
	C324.461273,101.487946 326.554169,95.726639 327.879883,89.795784 
	C329.786407,81.266846 331.168884,72.620567 333.084503,64.093910 
	C334.197662,59.139225 336.093353,54.364742 337.324005,49.431110 
	C339.667419,40.036114 341.910095,30.611683 343.942810,21.145411 
	C344.858795,16.879826 345.170410,12.484459 345.865906,7.336244 
	C343.074585,6.892826 340.234161,6.060929 337.390472,6.049420 
	C312.062256,5.946904 286.712738,5.380055 261.413391,6.240838 
	C248.366272,6.684752 235.751556,10.425834 226.403641,20.975363 
	C223.067352,24.740519 218.739197,27.689745 215.723343,31.663738 
	C207.569733,42.407742 203.833084,54.964218 201.959457,68.175423 
	C201.522964,71.253227 200.609177,74.262184 199.940765,77.308472 
	C196.905243,91.143082 193.787552,104.960663 190.897324,118.825623 
	C189.840897,123.893440 189.709259,129.168655 188.470230,134.179764 
	C187.180313,139.396545 184.797241,144.336777 183.389542,149.532684 
	C182.226776,153.824585 181.959579,158.351669 180.971725,162.700974 
	C180.291153,165.697311 178.841888,168.515152 178.108765,171.504150 
	C175.060867,183.930649 172.057449,196.369827 169.221725,208.846161 
	C166.046494,222.816315 163.149918,236.849716 159.986710,250.822708 
	C156.128891,267.864136 152.111267,284.869324 148.203842,301.899628 
	C148.029587,302.659088 148.261841,303.511841 148.341705,305.018341 
	C150.249268,305.018341 152.023117,305.018219 153.796967,305.018372 
	C177.959152,305.020477 202.121429,304.996704 226.283356,305.076080 
	C228.124222,305.082123 229.962692,305.818909 231.901138,306.608032 
	C203.312439,307.000000 174.624878,307.000000 145.468658,307.000000 
	C147.143158,296.927216 149.160980,286.825836 151.453125,276.787079 
	C158.154724,247.436371 164.983398,218.114685 171.729736,188.774139 
	C182.205017,143.216019 192.653015,97.651596 203.113358,52.090027 
	C209.534668,24.121090 234.745560,3.931480 263.406677,3.833427 
	C291.041840,3.738884 318.677063,3.661778 346.312286,3.623200 
	C347.395081,3.621689 348.478516,4.098393 350.030334,4.462130 
	C341.914429,39.905632 333.869324,75.039955 325.634338,110.908257 
	C324.854126,114.709610 324.263733,117.776985 323.673370,120.844360 
	C321.782806,128.631653 319.892242,136.418930 317.899200,144.729233 
	C317.796722,145.252243 317.886658,145.570847 317.691772,145.740540 
	C317.456329,146.238266 317.415802,146.566315 317.217712,147.224182 
	C317.043762,148.036072 317.027313,148.518097 317.010834,149.000137 
	C314.042480,161.738556 311.074097,174.476959 307.978455,187.897278 
	C307.820007,189.012451 307.788818,189.445724 307.757629,189.878998 
	C304.763855,202.292542 301.718445,214.693939 298.792053,227.123367 
	C296.315369,237.642914 294.178680,248.246155 291.525421,258.719604 
	C288.180206,271.924500 281.607361,283.309998 271.130615,292.679871 
	C270.999512,292.999786 270.969574,292.979431 270.969574,292.979431 
	C269.058197,294.351807 267.146790,295.724182 264.719849,297.425598 
	C262.754578,298.730652 261.304901,299.706696 259.855225,300.682770 
	C254.692963,302.573425 249.530685,304.464081 244.184204,306.677368 
	C241.299988,307.000000 238.599976,307.000000 235.449982,307.000000 
z"/>
<path fill="#FBFCF9" opacity="1.000000" stroke="none" 
	d="
M267.416656,307.000000 
	C267.715546,301.580902 272.746094,299.549866 277.313324,302.313873 
	C275.654114,303.544250 273.833191,304.894592 272.006134,306.622437 
	C270.611115,307.000000 269.222198,307.000000 267.416656,307.000000 
z"/>
<path fill="#FBFCF9" opacity="1.000000" stroke="none" 
	d="
M509.000000,256.625000 
	C508.778137,256.034180 508.556274,255.068375 508.667175,254.051270 
	C509.000000,254.750000 509.000000,255.500000 509.000000,256.625000 
z"/>
<path fill="#FBFCF9" opacity="1.000000" stroke="none" 
	d="
M351.750000,1.000004 
	C351.726379,1.109769 351.452759,1.219530 351.089569,1.164645 
	C351.000000,1.000000 351.500000,1.000000 351.750000,1.000004 
z"/>
<path fill="#11B04E" opacity="1.000000" stroke="none" 
	d="
M392.999237,260.991333 
	C390.948059,260.899902 388.896851,260.808502 385.970978,260.714722 
	C359.719238,260.712402 334.342224,260.712402 308.534912,260.712402 
	C308.916412,258.200409 309.042694,256.734131 309.368866,255.313736 
	C317.852539,218.369751 326.349915,181.428925 334.861267,144.491302 
	C338.445557,128.936188 341.540985,113.244453 345.784424,97.870346 
	C353.814056,68.778938 378.383148,50.399448 408.569000,50.254860 
	C436.044586,50.123245 463.521027,50.167843 490.997070,50.134766 
	C491.141388,50.402679 491.339600,50.621853 491.679321,51.270218 
	C480.268616,101.623009 468.678528,151.476990 457.335449,201.387131 
	C454.432953,214.158417 450.913086,226.530426 442.415131,236.869873 
	C429.624176,252.432648 413.121429,260.428802 392.999237,260.991333 
M393.430664,129.847610 
	C387.543793,155.688660 381.656921,181.529709 375.688812,207.727356 
	C377.505585,207.886688 378.481659,208.085480 379.446106,208.039581 
	C390.994873,207.490280 401.946411,197.428284 404.879303,184.642807 
	C408.968781,166.815277 413.084076,148.993057 417.025391,131.132614 
	C417.752258,127.838821 418.990662,126.506226 422.613342,126.604637 
	C432.763947,126.880379 442.929565,126.563164 453.084259,126.750755 
	C456.605194,126.815804 457.690369,125.425888 457.901581,122.132957 
	C458.600220,111.242836 451.337952,103.080719 440.295013,103.031113 
	C415.315948,102.918884 390.336090,102.972794 365.356567,102.979271 
	C363.893402,102.979645 362.430267,103.158737 361.065918,103.248184 
	C357.612854,115.780647 364.684692,125.943001 377.120514,126.550125 
	C381.607513,126.769180 386.120544,126.501312 390.600403,126.788239 
	C391.684235,126.857651 392.683594,128.246613 393.430664,129.847610 
z"/>
<path fill="#0466B2" opacity="1.000000" stroke="none" 
	d="
M183.500214,50.189163 
	C187.587387,50.753651 185.661331,53.179726 185.303177,54.774364 
	C180.563126,75.878517 175.758896,96.968414 170.912674,118.048538 
	C163.569733,149.988876 156.008347,181.880157 148.867493,213.865433 
	C143.249008,239.031769 119.456238,259.924042 93.700172,260.431213 
	C64.545013,261.005280 35.370506,260.599060 6.204408,260.601868 
	C5.234202,260.601959 4.263976,260.414398 2.708271,260.253876 
	C4.554900,251.955627 6.301637,243.884399 8.150393,235.836578 
	C16.529833,199.360123 24.834650,162.865982 33.393055,126.431450 
	C36.316868,113.984291 38.514492,101.101830 43.471916,89.451408 
	C54.255695,64.108482 74.342842,50.773533 102.055626,50.325260 
	C129.048660,49.888630 156.053833,50.202099 183.500214,50.189163 
M126.820084,162.028397 
	C129.698456,159.681061 133.490784,157.851974 135.198303,154.840729 
	C136.907486,151.826538 136.533600,147.631165 136.922668,143.195114 
	C134.754898,142.503723 132.607605,141.327469 130.414536,141.234772 
	C127.142540,141.096512 123.840416,141.950287 120.547356,141.981064 
	C109.385567,142.085403 98.222130,142.017197 87.059326,142.007782 
	C78.624084,142.000671 78.628235,141.996918 80.838112,133.714951 
	C80.964828,133.240021 81.001793,132.719406 80.969559,132.227310 
	C80.750938,128.889420 82.511978,127.897423 85.580154,127.969460 
	C101.532417,128.343964 117.486275,128.658920 133.440826,128.917236 
	C135.402145,128.948990 137.617691,129.027649 139.294312,128.215347 
	C147.317307,124.328362 155.612640,120.510841 159.443466,111.662956 
	C160.558884,109.086708 161.457108,105.374184 160.378525,103.224091 
	C159.534485,101.541496 155.492706,100.818901 152.855469,100.780342 
	C128.419556,100.422997 103.980179,100.298172 79.541519,100.153694 
	C78.607895,100.148186 77.607162,100.495285 76.748169,100.907997 
	C74.079895,102.190079 71.349182,103.403435 68.871994,104.999382 
	C67.348572,105.980858 66.244278,107.612885 64.254837,109.070778 
	C62.100166,111.165642 59.029518,112.881721 57.975082,115.431564 
	C55.525711,121.354660 53.874146,127.633400 52.216473,133.852554 
	C49.166733,145.294388 46.284130,156.782089 43.466904,168.283752 
	C42.644711,171.640457 42.477020,175.156754 41.665874,178.516998 
	C39.843811,186.065094 37.606346,193.516464 35.912617,201.090988 
	C34.190430,208.792770 36.565113,210.557114 44.181759,209.576462 
	C51.729916,208.604630 57.401108,204.446976 61.722351,199.259888 
	C65.742981,194.433685 68.344666,188.371063 69.327240,181.591232 
	C70.829132,171.228088 70.698502,168.905304 82.098358,168.972122 
	C92.428009,169.032669 102.758881,169.059616 113.088058,168.969391 
	C120.972244,168.900528 124.984215,166.694046 126.820084,162.028397 
z"/>
<path fill="#FBFCF9" opacity="1.000000" stroke="none" 
	d="
M490.997253,49.756355 
	C463.521027,50.167843 436.044586,50.123245 408.569000,50.254860 
	C378.383148,50.399448 353.814056,68.778938 345.784424,97.870346 
	C341.540985,113.244453 338.445557,128.936188 334.861267,144.491302 
	C326.349915,181.428925 317.852539,218.369751 309.368866,255.313736 
	C309.042694,256.734131 308.916412,258.200409 308.534912,260.712402 
	C334.342224,260.712402 359.719238,260.712402 385.548645,260.848511 
	C384.378235,261.656433 382.759216,262.902161 381.132111,262.912811 
	C360.806305,263.045959 340.479218,262.979523 320.152649,263.026611 
	C317.680786,263.032349 315.169952,263.189697 312.746429,263.645264 
	C307.140533,264.699127 303.866241,262.346588 304.142853,256.628754 
	C304.263000,254.144974 305.165771,251.347198 306.625824,249.364014 
	C308.724243,246.513763 309.300720,243.974472 308.105011,240.649384 
	C306.967438,237.486099 304.749725,237.067734 301.873596,236.839493 
	C300.859833,236.759033 299.014252,234.295273 299.189301,234.038544 
	C301.629425,230.460083 304.354492,227.075897 307.564758,222.927612 
	C308.946594,227.030472 309.810699,229.596024 310.674805,232.161591 
	C311.237122,232.039886 311.799438,231.918182 312.361755,231.796478 
	C313.538269,226.416916 314.714661,221.037354 315.891266,215.657822 
	C317.123627,210.023376 318.397919,204.397614 319.569763,198.750595 
	C320.098633,196.201996 321.201721,193.364868 316.932587,192.692123 
	C316.231873,192.581696 315.126862,190.812439 315.328217,190.150269 
	C315.666473,189.037811 316.834076,187.459167 317.774414,187.370743 
	C322.187622,186.955795 322.663971,183.993973 323.420837,180.497894 
	C324.879730,173.759171 326.942902,167.152390 328.683716,160.472198 
	C328.911041,159.599808 328.714905,158.617035 328.714905,156.542252 
	C326.912079,159.306732 325.905884,161.281448 324.483154,162.886993 
	C323.449127,164.053894 321.864349,164.732758 320.525146,165.629242 
	C319.897491,164.112167 319.269836,162.595093 318.364777,160.407532 
	C320.714722,160.582184 321.957550,160.674561 324.132904,160.836243 
	C323.545288,158.820419 323.464233,156.183426 322.560730,155.862579 
	C319.149658,154.651230 318.423553,151.959152 317.331329,149.047836 
	C317.027313,148.518097 317.043762,148.036072 317.378662,147.041718 
	C317.857239,146.229126 317.920441,145.909607 317.886658,145.570847 
	C317.886658,145.570847 317.796722,145.252243 317.903351,145.125580 
	C323.003937,143.354004 323.758331,139.726913 321.899017,134.156647 
	C324.072418,134.896378 326.404694,135.328598 326.401917,135.745178 
	C326.374207,139.883667 325.960571,144.019547 325.656036,148.156174 
	C325.235962,148.189468 324.815857,148.222748 324.395782,148.256042 
	C326.211731,149.796616 328.027710,151.337189 330.419891,153.366623 
	C331.358307,147.403488 331.356049,141.950836 333.157928,137.179489 
	C336.282166,128.906601 336.549164,120.493027 334.727264,112.332283 
	C333.383240,106.312035 334.026703,101.575096 337.367493,96.716385 
	C337.962006,95.851761 337.624542,94.195992 337.400269,92.963226 
	C337.197144,91.846695 336.129272,90.786034 336.184723,89.740067 
	C336.600922,81.887283 337.200928,74.044243 337.767700,65.846588 
	C343.225372,67.881973 344.725922,74.237190 341.898254,78.543015 
	C338.899567,83.109184 339.278931,89.192276 343.295929,94.177727 
	C347.293884,86.646782 351.174957,79.336044 355.341675,71.487206 
	C354.828705,70.153908 353.982605,67.954803 353.136505,65.755707 
	C353.443024,65.577118 353.749542,65.398537 354.056061,65.219948 
	C354.975372,66.025612 355.898804,67.489151 356.812988,67.483406 
	C358.199188,67.474701 360.692139,66.565056 360.771851,65.828064 
	C361.148499,62.344646 363.462158,61.784863 366.134064,60.926067 
	C368.528046,60.156597 370.791809,58.793827 372.907410,57.384220 
	C377.844910,54.094429 382.657715,50.617580 387.524200,47.221100 
	C388.060822,46.846565 388.609344,46.204468 389.167511,46.187599 
	C399.382019,45.878887 409.520111,41.145584 419.848938,45.700790 
	C421.125366,46.263721 422.800537,45.988346 424.291046,45.989845 
	C440.434906,46.006084 456.579773,45.906834 472.721771,46.079941 
	C475.885590,46.113865 479.017792,47.425354 482.202637,47.691078 
	C484.858704,47.912685 487.570587,47.465458 490.667023,47.291451 
	C490.702484,47.515327 490.849976,48.446632 490.997253,49.756355 
z"/>
<path fill="#FBFCF9" opacity="1.000000" stroke="none" 
	d="
M393.083740,261.374084 
	C413.121429,260.428802 429.624176,252.432648 442.415131,236.869873 
	C450.913086,226.530426 454.432953,214.158417 457.335449,201.387131 
	C468.678528,151.476990 480.268616,101.623009 491.876678,51.374504 
	C493.529785,51.483196 495.073120,51.965546 497.299713,52.661438 
	C492.295837,56.993423 491.493744,61.936432 491.508270,67.880615 
	C491.521454,73.262642 488.937714,78.653152 487.483582,84.035759 
	C486.725647,86.841339 485.912079,89.632080 485.175507,92.443100 
	C485.009949,93.074928 484.816528,93.868408 485.049011,94.410248 
	C488.736664,103.005295 482.427856,109.617149 480.560211,117.086990 
	C477.522858,129.234787 471.946472,140.761017 471.674500,153.586517 
	C471.664337,154.064957 471.602844,154.642746 471.333954,155.000244 
	C466.997162,160.765823 469.825867,166.446564 471.446869,172.163635 
	C471.737823,173.189819 471.705688,174.307617 471.909729,176.182739 
	C469.878265,174.972946 468.540833,174.176453 466.225616,172.797653 
	C466.021332,175.326111 465.849518,177.410065 465.686310,179.494690 
	C465.623108,180.301880 465.878479,181.321136 465.480713,181.886185 
	C461.370544,187.725159 464.777161,194.008652 464.459534,200.050934 
	C464.395264,201.273376 466.297363,202.646408 467.381317,203.871826 
	C469.426758,206.184219 469.844696,208.416809 466.254211,211.865707 
	C464.295349,207.761581 462.639008,204.291321 460.457520,199.720764 
	C459.596893,201.851715 459.177979,202.529007 459.051483,203.257111 
	C457.633301,211.419708 456.534943,219.652191 454.712433,227.721756 
	C454.144531,230.236237 453.408051,234.589035 450.097229,233.021347 
	C444.724060,238.452454 439.891235,243.278198 435.135956,248.179169 
	C433.665283,249.694916 432.373566,251.389893 431.055084,253.046707 
	C426.071533,259.309082 418.079376,258.209229 411.592194,260.714966 
	C406.712921,262.599609 401.000153,262.371521 395.641754,262.920898 
	C394.865173,263.000458 393.995056,262.167511 393.083740,261.374084 
z"/>
<path fill="#246A9E" opacity="1.000000" stroke="none" 
	d="
M500.710510,254.769165 
	C498.077454,256.405212 495.594940,258.390289 492.779938,259.604553 
	C486.939362,262.123871 481.317291,260.733307 476.109680,257.440674 
	C477.166687,256.418182 478.077576,255.731293 479.347534,255.166519 
	C483.459625,255.447891 487.212677,255.607132 491.297180,255.722534 
	C497.362091,252.299881 500.407745,247.550888 499.279297,240.345642 
	C498.640289,238.960480 497.999939,237.903061 497.331116,236.480118 
	C492.742615,227.732254 487.627716,226.034164 478.755371,230.224945 
	C477.538025,231.522858 476.586639,232.641190 475.467377,233.827789 
	C475.299530,233.896072 474.950836,233.994781 474.696655,233.782776 
	C473.938995,232.331100 473.435516,231.091400 472.932068,229.851700 
	C479.290985,223.243149 488.053131,222.141571 495.916626,226.962143 
	C503.005463,231.307816 506.208832,240.198547 503.424622,248.136948 
	C502.718262,250.151016 501.625336,252.029510 500.767303,254.384155 
	C500.824554,254.798019 500.710510,254.769150 500.710510,254.769165 
z"/>
<path fill="#FBFCF9" opacity="1.000000" stroke="none" 
	d="
M317.536804,269.267334 
	C320.587952,269.050140 323.315216,269.003601 326.042511,269.002930 
	C349.358185,268.997131 372.674133,269.045197 395.988983,268.905823 
	C397.696869,268.895630 399.765625,267.936676 401.023804,266.741882 
	C403.671539,264.227417 406.097534,264.581757 408.749756,265.944489 
	C408.888428,266.512024 409.027100,267.079559 409.165802,267.647095 
	C404.720520,268.764740 400.288116,270.785004 395.827820,270.848450 
	C372.849915,271.175201 349.864471,270.938721 326.882568,271.062195 
	C323.184479,271.082031 319.490784,271.925781 314.957703,272.493530 
	C315.874756,271.259705 316.543854,270.359467 317.536804,269.267334 
z"/>
<path fill="#FBFCF9" opacity="1.000000" stroke="none" 
	d="
M353.444702,34.272125 
	C352.544739,34.580162 351.863831,34.606731 351.182953,34.633301 
	C351.122101,30.051796 350.847839,25.457806 351.114655,20.895466 
	C351.209747,19.270267 352.617371,17.721838 353.425842,16.138371 
	C355.592621,17.628822 359.039978,18.698675 359.692841,20.686380 
	C361.897736,27.399441 359.851471,31.086096 353.444702,34.272125 
z"/>
<path fill="#246EA5" opacity="1.000000" stroke="none" 
	d="
M478.988495,255.044403 
	C478.077576,255.731293 477.166687,256.418182 475.863922,257.162903 
	C466.375305,250.169235 465.146118,239.427368 472.660583,230.065094 
	C473.435516,231.091400 473.938995,232.331100 474.586914,234.149719 
	C471.791565,241.279846 471.820221,247.460220 477.173096,253.236328 
	C477.884674,253.999649 478.436584,254.522034 478.988495,255.044403 
z"/>
<path fill="#FBFCF9" opacity="1.000000" stroke="none" 
	d="
M479.000000,143.999390 
	C479.672302,140.087585 483.306183,136.466949 480.160980,132.114868 
	C480.016144,131.914459 481.267548,130.140289 481.669464,130.212204 
	C483.036804,130.456985 485.311890,131.019226 485.451782,131.786438 
	C486.014526,134.872223 486.576843,138.270615 485.756561,141.161087 
	C485.360565,142.556366 481.897217,143.081161 479.411377,144.000061 
	C479.000000,144.000000 479.000000,143.999390 479.000000,143.999390 
z"/>
<path fill="#FBFCF9" opacity="1.000000" stroke="none" 
	d="
M478.268555,217.620941 
	C479.226501,218.495483 480.509766,219.612350 480.349091,219.888214 
	C479.492798,221.358368 478.498596,222.963318 477.120697,223.854904 
	C475.700775,224.773636 473.785431,224.926651 471.025818,225.719528 
	C471.025818,223.764877 470.260193,221.011215 471.191803,220.195251 
	C472.911743,218.688812 475.626984,218.318726 478.268555,217.620941 
z"/>
<path fill="#FBFCF9" opacity="1.000000" stroke="none" 
	d="
M464.847961,231.398590 
	C465.211548,237.341431 460.514221,238.462234 456.807007,240.885498 
	C454.521820,238.528534 453.913666,236.703415 457.505737,235.000015 
	C458.836517,234.368912 459.731567,232.861053 461.031433,232.109558 
	C462.121490,231.479370 463.511261,231.367584 464.847961,231.398590 
z"/>
<path fill="#FBFCF9" opacity="1.000000" stroke="none" 
	d="
M324.034729,120.999603 
	C324.263733,117.776985 324.854126,114.709610 325.666321,111.317276 
	C331.409302,111.518288 328.676880,115.619194 328.632477,118.129021 
	C328.598694,120.037727 328.003326,123.262894 324.034729,120.999603 
z"/>
<path fill="#FBFCF9" opacity="1.000000" stroke="none" 
	d="
M488.599609,264.143738 
	C488.751678,265.389069 488.738098,267.439148 488.273987,267.546814 
	C486.193573,268.029297 483.984924,267.958984 481.822571,268.088165 
	C481.974976,266.461700 482.127411,264.835266 482.293640,263.061401 
	C484.720917,263.467590 486.473755,263.760895 488.599609,264.143738 
z"/>
<path fill="#FBFCF9" opacity="1.000000" stroke="none" 
	d="
M294.344116,262.497314 
	C297.334686,262.147156 299.579956,262.917816 298.634216,266.020355 
	C298.256592,267.259186 296.057892,267.942902 294.688171,268.879333 
	C294.463776,266.820038 294.239349,264.760773 294.344116,262.497314 
z"/>
<path fill="#FBFCF9" opacity="1.000000" stroke="none" 
	d="
M313.081909,202.809494 
	C312.587036,203.889801 312.252228,204.634171 311.917389,205.378525 
	C311.374817,205.044357 310.832245,204.710190 310.289673,204.376022 
	C311.014618,200.915878 311.739594,197.455719 312.708923,192.829193 
	C316.275146,197.069580 314.624390,199.767059 313.081909,202.809494 
z"/>
<path fill="#FBFCF9" opacity="1.000000" stroke="none" 
	d="
M319.073761,181.198761 
	C319.225647,177.368759 319.428406,173.935364 319.631134,170.501968 
	C324.038239,174.693176 321.076904,178.482742 320.217529,182.372452 
	C319.853210,182.113419 319.488922,181.854385 319.073761,181.198761 
z"/>
<path fill="#FBFCF9" opacity="1.000000" stroke="none" 
	d="
M479.000000,144.000305 
	C479.000000,146.549805 479.000000,149.098999 479.000000,151.648193 
	C478.353912,151.824371 477.707794,152.000534 477.061707,152.176712 
	C476.378204,150.879868 474.933655,149.399765 475.191315,148.329559 
	C475.568848,146.761719 477.165436,145.487442 478.621277,144.043732 
	C479.000000,143.999390 479.000000,144.000000 479.000000,144.000305 
z"/>
<path fill="#FBFCF9" opacity="1.000000" stroke="none" 
	d="
M504.346741,233.221039 
	C504.071106,230.555511 504.064240,228.134613 504.057373,225.713730 
	C504.777435,225.800781 505.497528,225.887817 506.217590,225.974869 
	C505.846008,228.470078 505.475952,230.965546 505.083191,233.457413 
	C505.078979,233.484085 504.777985,233.463974 504.346741,233.221039 
z"/>
<path fill="#FBFCF9" opacity="1.000000" stroke="none" 
	d="
M307.589172,272.537354 
	C305.722626,272.649750 304.032593,272.430023 302.342529,272.210266 
	C302.898773,271.199493 303.455017,270.188751 304.011292,269.178009 
	C305.262756,270.187073 306.514221,271.196167 307.589172,272.537354 
z"/>
<path fill="#FBFCF9" opacity="1.000000" stroke="none" 
	d="
M270.989563,292.985016 
	C273.695190,292.970245 276.410767,292.970245 279.063446,292.970245 
	C278.540588,296.985443 276.496918,297.316620 271.044739,293.342316 
	C270.969574,292.979431 270.999512,292.999786 270.989563,292.985016 
z"/>
<path fill="#FBFCF9" opacity="1.000000" stroke="none" 
	d="
M308.050232,213.931641 
	C308.422180,212.178101 308.820801,210.809372 309.219421,209.440643 
	C309.781525,209.506561 310.343628,209.572479 310.905731,209.638412 
	C310.680237,211.611557 310.454742,213.584702 310.229248,215.557846 
	C309.511810,215.144043 308.794342,214.730255 308.050232,213.931641 
z"/>
<path fill="#FBFCF9" opacity="1.000000" stroke="none" 
	d="
M260.005951,301.010956 
	C261.304901,299.706696 262.754578,298.730652 264.536133,297.691589 
	C264.723389,300.675842 264.845795,304.062103 260.005951,301.010956 
z"/>
<path fill="#FBFCF9" opacity="1.000000" stroke="none" 
	d="
M287.141998,277.635864 
	C287.707916,278.596313 287.937164,279.621552 288.166382,280.646820 
	C287.252380,280.537415 286.338348,280.427979 285.424316,280.318542 
	C285.884674,279.445923 286.345001,278.573303 287.141998,277.635864 
z"/>
<path fill="#FBFCF9" opacity="1.000000" stroke="none" 
	d="
M353.545868,58.616001 
	C354.453888,58.918633 355.120880,59.470398 355.787903,60.022163 
	C355.257690,60.533562 354.727509,61.044960 354.197296,61.556355 
	C353.899811,60.659279 353.602325,59.762203 353.545868,58.616001 
z"/>
<path fill="#FBFCF9" opacity="1.000000" stroke="none" 
	d="
M473.539185,270.871918 
	C472.317383,270.816772 471.436554,270.686279 470.555725,270.555786 
	C470.790039,270.101624 471.024384,269.647461 471.258698,269.193298 
	C472.132538,269.727722 473.006348,270.262146 473.539185,270.871918 
z"/>
<path fill="#FBFCF9" opacity="1.000000" stroke="none" 
	d="
M308.078339,190.014465 
	C307.788818,189.445724 307.820007,189.012451 308.007751,188.289810 
	C309.036499,188.618530 309.908661,189.236618 310.780853,189.854706 
	C309.986908,189.953110 309.192993,190.051514 308.078339,190.014465 
z"/>
<path fill="#FBFCF9" opacity="1.000000" stroke="none" 
	d="
M500.808472,254.741440 
	C501.725616,255.180054 502.658844,255.675262 503.592072,256.170471 
	C503.191345,256.635040 502.790649,257.099609 502.389954,257.564209 
	C501.887604,256.873535 501.385254,256.182861 500.796692,255.130676 
	C500.710510,254.769150 500.824554,254.798019 500.808472,254.741440 
z"/>
<path fill="#FBFCF9" opacity="1.000000" stroke="none" 
	d="
M473.472656,262.693024 
	C474.320099,262.947205 474.954895,263.442017 475.589722,263.936829 
	C475.277496,264.224548 474.965271,264.512268 474.653046,264.800018 
	C474.188721,264.177887 473.724396,263.555756 473.472656,262.693024 
z"/>
<path fill="#FBFCF9" opacity="1.000000" stroke="none" 
	d="
M478.530548,165.246094 
	C477.844818,164.661285 477.378693,163.843781 476.912598,163.026276 
	C477.372894,162.852081 477.833221,162.677872 478.293549,162.503677 
	C478.445740,163.340256 478.597931,164.176834 478.530548,165.246094 
z"/>
<path fill="#FBFCF9" opacity="1.000000" stroke="none" 
	d="
M319.813782,157.917145 
	C319.330994,158.242767 318.922791,158.300583 318.514618,158.358398 
	C318.705200,157.832077 318.895782,157.305756 319.086365,156.779434 
	C319.353729,157.069397 319.621063,157.359375 319.813782,157.917145 
z"/>
<path fill="#FBFCF9" opacity="1.000000" stroke="none" 
	d="
M372.597351,50.045380 
	C372.206421,50.283676 371.817596,50.281834 371.431000,50.251842 
	C371.420105,50.250996 371.432556,49.949646 371.434143,49.788418 
	C371.822693,49.792709 372.211273,49.797005 372.597351,50.045380 
z"/>
<path fill="#FBFCF9" opacity="1.000000" stroke="none" 
	d="
M491.459412,218.614807 
	C491.344849,219.057938 491.065674,219.329575 490.768738,219.580170 
	C490.761169,219.586578 490.559174,219.362579 490.447876,219.246063 
	C490.729401,218.977539 491.010925,218.709015 491.459412,218.614807 
z"/>
<path fill="#E18249" opacity="1.000000" stroke="none" 
	d="
M231.288956,168.976913 
	C224.695816,169.157684 222.468155,171.753006 221.946655,178.375031 
	C220.876816,191.959763 213.684250,201.633591 202.126526,208.334335 
	C201.281128,208.824478 200.252533,209.279434 199.311600,209.274506 
	C195.588547,209.255051 191.866501,209.045868 188.144073,208.907013 
	C188.271362,205.603134 188.363953,202.297455 188.537155,198.995972 
	C188.671280,196.439102 188.525116,193.782913 189.190369,191.359390 
	C190.071060,188.151093 192.039993,185.225143 192.798416,182.003021 
	C194.459534,174.945786 195.622177,167.772278 197.053238,160.659302 
	C197.575256,158.064621 198.320038,155.515625 198.896317,152.930862 
	C200.965851,143.648438 203.005554,134.359375 205.059021,125.073357 
	C206.517181,118.479439 207.806046,111.840179 209.544983,105.321045 
	C210.068176,103.359604 211.848450,101.733467 212.419418,100.889763 
	C217.566208,100.393181 221.903244,99.985115 226.237579,99.550247 
	C227.544815,99.419098 228.844299,99.066650 230.147812,99.064232 
	C247.975677,99.031113 265.820801,98.584000 283.623596,99.252708 
	C291.421112,99.545609 299.624695,101.414818 304.728943,108.445282 
	C308.854340,114.127441 308.722015,121.005287 307.683807,127.553970 
	C306.844238,132.849747 304.394470,137.889175 303.543671,143.184448 
	C302.253143,151.216766 298.780182,158.413391 293.159607,163.584900 
	C289.570587,166.887131 283.356110,168.527390 278.227844,168.742218 
	C262.759735,169.390152 247.247177,168.976654 231.288956,168.976913 
M259.922058,167.057739 
	C263.945221,166.983414 267.968353,166.909073 272.873383,167.024292 
	C283.065582,167.835785 292.002136,164.401596 296.109619,155.178848 
	C300.338654,145.683258 302.126343,135.100357 305.222412,124.388031 
	C305.219971,123.957581 305.217560,123.527130 305.624420,122.454559 
	C307.280762,111.949432 298.690033,102.948280 288.068817,103.001694 
	C267.382965,103.060730 246.697128,103.119766 225.101547,102.971970 
	C222.122330,102.952995 219.099121,102.627914 216.182831,103.046928 
	C214.769638,103.249985 212.701843,104.631462 212.392761,105.850266 
	C210.448578,113.516594 208.915619,121.287209 206.971176,129.705292 
	C206.891312,130.433716 206.811432,131.162125 206.307419,132.500092 
	C200.571991,157.476608 194.836578,182.453125 189.072693,207.553528 
	C202.092056,208.668808 214.425751,198.637878 217.782928,185.028198 
	C218.896790,180.512756 220.201584,176.013138 220.858154,171.425995 
	C221.389542,167.713516 223.210281,166.913834 226.567688,167.010834 
	C232.041595,167.168976 237.527359,166.916183 243.924103,166.997604 
	C248.280319,166.970398 252.636551,166.943192 257.656860,167.097946 
	C258.106995,167.033295 258.557159,166.968658 259.922058,167.057739 
z"/>
<path fill="#FBFCF9" opacity="1.000000" stroke="none" 
	d="
M317.691772,145.740540 
	C317.920441,145.909607 317.857239,146.229126 317.536163,146.711884 
	C317.415802,146.566315 317.456329,146.238266 317.691772,145.740540 
z"/>
<path fill="#F4FDF8" opacity="1.000000" stroke="none" 
	d="
M393.576233,129.438202 
	C392.683594,128.246613 391.684235,126.857651 390.600403,126.788239 
	C386.120544,126.501312 381.607513,126.769180 377.120514,126.550125 
	C364.684692,125.943001 357.612854,115.780647 361.065918,103.248184 
	C362.430267,103.158737 363.893402,102.979645 365.356567,102.979271 
	C390.336090,102.972794 415.315948,102.918884 440.295013,103.031113 
	C451.337952,103.080719 458.600220,111.242836 457.901581,122.132957 
	C457.690369,125.425888 456.605194,126.815804 453.084259,126.750755 
	C442.929565,126.563164 432.763947,126.880379 422.613342,126.604637 
	C418.990662,126.506226 417.752258,127.838821 417.025391,131.132614 
	C413.084076,148.993057 408.968781,166.815277 404.879303,184.642807 
	C401.946411,197.428284 390.994873,207.490280 379.446106,208.039581 
	C378.481659,208.085480 377.505585,207.886688 375.688812,207.727356 
	C381.656921,181.529709 387.543793,155.688660 393.576233,129.438202 
z"/>
<path fill="#266FA3" opacity="1.000000" stroke="none" 
	d="
M64.951790,108.952805 
	C66.244278,107.612885 67.348572,105.980858 68.871994,104.999382 
	C71.349182,103.403435 74.079895,102.190079 76.748169,100.907997 
	C77.607162,100.495285 78.607895,100.148186 79.541519,100.153694 
	C103.980179,100.298172 128.419556,100.422997 152.855469,100.780342 
	C155.492706,100.818901 159.534485,101.541496 160.378525,103.224091 
	C161.457108,105.374184 160.558884,109.086708 159.443466,111.662956 
	C155.612640,120.510841 147.317307,124.328362 139.294312,128.215347 
	C137.617691,129.027649 135.402145,128.948990 133.440826,128.917236 
	C117.486275,128.658920 101.532417,128.343964 85.580154,127.969460 
	C82.511978,127.897423 80.750938,128.889420 80.969559,132.227310 
	C81.001793,132.719406 80.964828,133.240021 80.838112,133.714951 
	C78.628235,141.996918 78.624084,142.000671 87.059326,142.007782 
	C98.222130,142.017197 109.385567,142.085403 120.547356,141.981064 
	C123.840416,141.950287 127.142540,141.096512 130.414536,141.234772 
	C132.607605,141.327469 134.754898,142.503723 136.907562,143.643219 
	C136.892456,144.091324 136.715225,144.233078 136.270111,144.165665 
	C115.917404,144.049042 96.009827,143.999832 76.031052,143.584610 
	C75.973289,142.475952 75.986740,141.733292 76.234467,140.680405 
	C77.257217,137.012878 78.262001,133.687943 78.770546,130.288773 
	C79.236740,127.172623 80.730911,126.281525 83.747459,126.394203 
	C88.169510,126.559395 92.608871,126.261116 97.498825,126.248444 
	C102.970169,126.219093 107.983543,126.101624 113.457977,126.078751 
	C121.237938,126.126549 128.578110,126.416443 135.870804,125.955269 
	C147.262985,125.234856 158.768448,113.769379 159.251297,102.767319 
	C157.604126,102.767319 155.973694,102.767540 154.343246,102.767288 
	C132.713440,102.763931 111.082581,102.883148 89.454346,102.697113 
	C80.723343,102.622009 72.587883,103.930771 65.452072,109.445312 
	C65.285339,109.281113 64.951790,108.952805 64.951790,108.952805 
z"/>
<path fill="#266FA3" opacity="1.000000" stroke="none" 
	d="
M126.117516,162.125854 
	C124.984215,166.694046 120.972244,168.900528 113.088058,168.969391 
	C102.758881,169.059616 92.428009,169.032669 82.098358,168.972122 
	C70.698502,168.905304 70.829132,171.228088 69.327240,181.591232 
	C68.344666,188.371063 65.742981,194.433685 61.722351,199.259888 
	C57.401108,204.446976 51.729916,208.604630 44.181759,209.576462 
	C36.565113,210.557114 34.190430,208.792770 35.912617,201.090988 
	C37.606346,193.516464 39.843811,186.065094 41.665874,178.516998 
	C42.477020,175.156754 42.644711,171.640457 43.466904,168.283752 
	C46.284130,156.782089 49.166733,145.294388 52.216473,133.852554 
	C53.874146,127.633400 55.525711,121.354660 57.975082,115.431564 
	C59.029518,112.881721 62.100166,111.165642 64.603317,109.011795 
	C64.951790,108.952805 65.285339,109.281113 65.266991,109.721191 
	C59.178535,115.406143 56.060448,122.145569 55.070412,130.328583 
	C54.914127,131.065613 54.879776,131.498199 54.614990,132.230225 
	C53.607357,136.356186 52.830158,140.182739 51.930935,144.309052 
	C51.777752,145.036118 51.746601,145.463425 51.505108,146.197296 
	C46.586243,166.853745 41.877716,187.203613 36.889812,208.760941 
	C41.499973,207.696472 45.365162,207.373993 48.738934,205.915085 
	C57.823212,201.986832 63.629963,195.080322 66.036797,185.328918 
	C67.536964,179.250900 69.397308,173.261780 71.457642,167.311920 
	C72.549301,167.322876 73.279327,167.254684 74.439781,167.308762 
	C77.241898,167.350327 79.613586,167.269623 82.443192,167.291901 
	C87.584877,167.320923 92.268654,167.247009 97.412674,167.296310 
	C107.667603,167.957397 117.320168,167.797470 125.857643,161.835052 
	C125.944038,161.932190 126.117516,162.125854 126.117516,162.125854 
z"/>
<path fill="#266FA3" opacity="1.000000" stroke="none" 
	d="
M136.982620,144.022430 
	C136.533600,147.631165 136.907486,151.826538 135.198303,154.840729 
	C133.490784,157.851974 129.698456,159.681061 126.468796,162.077118 
	C126.117516,162.125854 125.944038,161.932190 126.034119,161.553467 
	C131.494095,156.677521 135.190033,151.133820 136.715225,144.233078 
	C136.715225,144.233078 136.892456,144.091324 136.982620,144.022430 
z"/>
<path fill="#D7F1F9" opacity="1.000000" stroke="none" 
	d="
M479.347534,255.166534 
	C478.436584,254.522034 477.884674,253.999649 477.575806,253.213211 
	C478.354340,252.900269 478.889832,252.851395 479.815094,252.744873 
	C481.180939,251.821869 482.747772,251.101562 483.003632,250.059387 
	C483.462494,248.190521 483.133057,246.128082 483.133057,244.146545 
	C483.680847,244.038040 484.228638,243.929535 484.776428,243.821045 
	C485.572632,245.113983 486.368866,246.406921 487.143860,248.040497 
	C487.518097,248.855225 487.913544,249.329346 488.250610,249.834320 
	C488.192261,249.865204 488.242706,249.743164 488.265320,250.010559 
	C488.548035,250.507385 488.808167,250.736832 489.047180,250.965515 
	C489.026031,250.964767 489.059052,250.932983 489.078003,251.273636 
	C489.719879,252.998322 490.342804,254.382355 490.965729,255.766373 
	C487.212677,255.607132 483.459625,255.447891 479.347534,255.166534 
z"/>
<path fill="#E6F8FB" opacity="1.000000" stroke="none" 
	d="
M479.425293,252.802521 
	C478.889832,252.851395 478.354340,252.900269 477.416138,252.972275 
	C471.820221,247.460220 471.791565,241.279846 474.841064,234.361710 
	C474.950836,233.994781 475.299530,233.896072 475.892883,233.942398 
	C476.999542,235.760010 477.785278,237.503174 477.971619,239.308212 
	C478.407166,243.527222 478.554932,247.775970 479.004517,252.184250 
	C479.268219,252.504715 479.346741,252.653610 479.425293,252.802521 
z"/>
<path fill="#D9F3FC" opacity="1.000000" stroke="none" 
	d="
M479.021301,230.045380 
	C487.627716,226.034164 492.742615,227.732254 496.932709,236.518738 
	C495.764252,236.952225 494.965729,236.981567 494.082703,236.639099 
	C491.916473,234.830505 490.010254,232.775253 487.706390,232.121567 
	C485.125519,231.389313 482.184631,231.925858 479.301483,231.444916 
	C479.142120,230.668137 479.081696,230.356750 479.021301,230.045380 
z"/>
<path fill="#BBE5F3" opacity="1.000000" stroke="none" 
	d="
M491.297180,255.722534 
	C490.342804,254.382355 489.719879,252.998322 489.443970,251.348526 
	C490.744202,250.954315 491.697449,250.825851 493.057373,250.642593 
	C491.942291,248.465012 490.984406,246.594360 489.894653,244.466293 
	C490.897430,243.843109 491.843567,243.255127 492.838531,243.075943 
	C493.355774,245.265930 493.824188,247.047104 494.292572,248.828278 
	C494.843475,248.888107 495.394348,248.947937 495.945251,249.007782 
	C497.056152,246.229645 498.167023,243.451508 499.277924,240.673370 
	C500.407745,247.550888 497.362091,252.299881 491.297180,255.722534 
z"/>
<path fill="#F5FCF9" opacity="1.000000" stroke="none" 
	d="
M499.279297,240.345642 
	C498.167023,243.451508 497.056152,246.229645 495.945251,249.007782 
	C495.394348,248.947937 494.843475,248.888107 494.292572,248.828278 
	C493.824188,247.047104 493.355774,245.265930 493.051178,242.838089 
	C493.532410,240.464600 493.849854,238.737762 494.167236,237.010925 
	C494.965729,236.981567 495.764252,236.952225 496.961182,236.884277 
	C497.999939,237.903061 498.640289,238.960480 499.279297,240.345642 
z"/>
<path fill="#B7E3F5" opacity="1.000000" stroke="none" 
	d="
M478.755371,230.224945 
	C479.081696,230.356750 479.142120,230.668137 479.161407,231.827362 
	C479.019928,239.121002 478.919617,245.566833 478.819275,252.012665 
	C478.554932,247.775970 478.407166,243.527222 477.971619,239.308212 
	C477.785278,237.503174 476.999542,235.760010 476.060730,233.874115 
	C476.586639,232.641190 477.538025,231.522858 478.755371,230.224945 
z"/>
<path fill="#FEFEFE" opacity="1.000000" stroke="none" 
	d="
M305.215149,123.096680 
	C305.217560,123.527130 305.219971,123.957581 304.722839,124.741684 
	C303.597351,125.591751 302.554779,125.989944 302.411011,126.599991 
	C301.178680,131.827942 299.809937,137.052338 299.066803,142.359695 
	C298.145447,148.939682 294.037079,155.388428 290.222229,156.523422 
	C289.090729,158.454437 287.817352,160.601959 285.968384,161.377975 
	C282.140381,162.984604 277.987396,163.803635 274.014099,165.088837 
	C273.233368,165.341385 272.660339,166.236160 271.991516,166.834747 
	C267.968353,166.909073 263.945221,166.983414 259.422241,166.694305 
	C258.598450,166.030502 258.274475,165.730148 257.950531,165.429779 
	C257.631287,165.925186 257.312012,166.420578 256.992767,166.915985 
	C252.636551,166.943192 248.280319,166.970398 243.364380,166.548996 
	C237.736771,165.071381 232.689774,163.423355 227.593002,163.251434 
	C224.654297,163.152313 220.091507,164.652115 218.986313,166.821365 
	C216.936325,170.845047 217.047531,175.926071 215.948395,180.492081 
	C215.107574,183.985107 213.788651,187.363022 212.682373,190.792145 
	C212.272446,190.724670 211.862518,190.657211 211.452591,190.589737 
	C210.638901,188.754578 209.825195,186.919403 209.011505,185.084244 
	C208.399323,185.199249 207.787125,185.314255 207.174942,185.429260 
	C207.564224,187.592911 207.961166,189.755203 208.340042,191.920685 
	C208.582748,193.307877 211.690079,194.940491 207.800873,195.730682 
	C203.544296,192.401794 200.577667,196.805298 196.647964,196.964233 
	C195.738098,195.967590 194.541138,194.871368 194.715134,194.074493 
	C196.664490,185.146545 198.850861,176.270706 200.911469,167.366486 
	C201.459869,164.996765 201.532654,162.492294 202.278229,160.197327 
	C205.012329,151.781387 207.694290,143.366409 207.913498,134.420624 
	C207.933899,133.587418 207.144806,132.734375 206.731567,131.890549 
	C206.811432,131.162125 206.891312,130.433716 207.462555,129.349670 
	C209.628113,126.968346 212.138535,125.179741 212.794662,122.865433 
	C213.996674,118.625641 214.961823,113.969696 214.433334,109.683640 
	C213.872818,105.137863 215.872116,105.181389 219.023361,104.918159 
	C221.384628,104.720924 223.684219,103.785538 226.011276,103.178802 
	C246.697128,103.119766 267.382965,103.060730 288.601257,103.431976 
	C293.902802,106.591026 299.009766,108.965790 301.551117,114.287605 
	C302.919769,117.153625 304.003082,120.155884 305.215149,123.096680 
M240.807114,125.128784 
	C238.786667,124.753128 236.773697,124.329834 234.744247,124.011528 
	C230.240189,123.305099 228.157623,124.988342 227.696167,129.811234 
	C227.347565,133.454681 225.595673,136.980408 224.349869,140.516800 
	C223.116974,144.016525 224.555237,145.966354 228.785202,145.978607 
	C244.776367,146.024963 260.767792,146.003510 276.759003,145.969131 
	C277.703003,145.967102 278.646271,145.628845 278.911560,145.577728 
	C282.607330,140.324722 278.384216,133.102249 284.766388,129.510574 
	C282.418365,123.520378 276.223083,121.884483 271.076202,126.109230 
	C261.053192,126.037811 251.030151,125.966400 240.807114,125.128784 
M270.499084,109.002441 
	C255.900650,109.002441 241.302216,109.002441 226.703796,109.002441 
	C226.715118,109.443153 226.726456,109.883858 226.737793,110.324570 
	C247.250961,110.324570 267.764130,110.324570 288.277283,110.324570 
	C288.281128,109.883858 288.284943,109.443153 288.288757,109.002441 
	C282.691895,109.002441 277.095032,109.002441 270.499084,109.002441 
M280.355896,117.004318 
	C278.432770,116.724243 276.509644,116.444176 274.586548,116.164108 
	C274.691498,117.019119 274.649170,118.560059 274.924988,118.619278 
	C276.910828,119.045670 279.479736,121.964272 280.355896,117.004318 
M226.575577,119.112404 
	C226.284500,120.252022 225.993423,121.391640 225.702347,122.531265 
	C226.450043,122.462708 227.197723,122.394142 227.945419,122.325577 
	C227.735916,121.247765 227.526413,120.169945 226.575577,119.112404 
M220.341217,109.065842 
	C219.722275,109.540298 219.103317,110.014755 218.484375,110.489220 
	C219.096497,110.873871 219.708618,111.258530 220.320740,111.643188 
	C220.546082,110.831123 220.771408,110.019066 220.341217,109.065842 
M290.359619,149.595779 
	C289.905640,150.771790 289.451660,151.947800 288.997681,153.123810 
	C289.529907,153.242264 290.062134,153.360718 290.594391,153.479156 
	C290.663727,152.362396 290.733093,151.245621 290.359619,149.595779 
M215.079086,163.400345 
	C215.802048,163.415009 216.525024,163.429688 217.247986,163.444366 
	C216.784607,162.699615 216.321228,161.954849 215.857849,161.210083 
	C215.450409,161.786545 215.042969,162.363007 215.079086,163.400345 
M240.198059,120.597984 
	C240.202362,120.210487 240.206650,119.822990 240.210953,119.435493 
	C240.050140,119.433891 239.749542,119.421440 239.748703,119.432236 
	C239.718796,119.817818 239.716919,120.205582 240.198059,120.597984 
M201.291946,189.442017 
	C201.011139,189.709824 200.730347,189.977615 200.449539,190.245407 
	C200.560532,190.361664 200.671509,190.477921 200.782501,190.594193 
	C201.063324,190.326065 201.344147,190.057938 201.291946,189.442017 
z"/>
<path fill="#FDF9F0" opacity="1.000000" stroke="none" 
	d="
M208.002731,196.004242 
	C211.690079,194.940491 208.582748,193.307877 208.340042,191.920685 
	C207.961166,189.755203 207.564224,187.592911 207.174942,185.429260 
	C207.787125,185.314255 208.399323,185.199249 209.011505,185.084244 
	C209.825195,186.919403 210.638901,188.754578 211.452591,190.589737 
	C211.862518,190.657211 212.272446,190.724670 212.682373,190.792145 
	C213.788651,187.363022 215.107574,183.985107 215.948395,180.492081 
	C217.047531,175.926071 216.936325,170.845047 218.986313,166.821365 
	C220.091507,164.652115 224.654297,163.152313 227.593002,163.251434 
	C232.689774,163.423355 237.736771,165.071381 242.906372,166.468597 
	C237.527359,166.916183 232.041595,167.168976 226.567688,167.010834 
	C223.210281,166.913834 221.389542,167.713516 220.858154,171.425995 
	C220.201584,176.013138 218.896790,180.512756 217.782928,185.028198 
	C214.425751,198.637878 202.092056,208.668808 189.072693,207.553528 
	C194.836578,182.453125 200.571991,157.476608 206.519501,132.195312 
	C207.144806,132.734375 207.933899,133.587418 207.913498,134.420624 
	C207.694290,143.366409 205.012329,151.781387 202.278229,160.197327 
	C201.532654,162.492294 201.459869,164.996765 200.911469,167.366486 
	C198.850861,176.270706 196.664490,185.146545 194.715134,194.074493 
	C194.541138,194.871368 195.738098,195.967590 196.494354,197.271606 
	C195.248993,199.238724 193.807617,200.859024 192.353943,202.493149 
	C197.945328,205.654175 202.416870,203.769348 208.002731,196.004242 
z"/>
<path fill="#FDF9F0" opacity="1.000000" stroke="none" 
	d="
M272.432434,166.929520 
	C272.660339,166.236160 273.233368,165.341385 274.014099,165.088837 
	C277.987396,163.803635 282.140381,162.984604 285.968384,161.377975 
	C287.817352,160.601959 289.090729,158.454437 290.222229,156.523422 
	C294.037079,155.388428 298.145447,148.939682 299.066803,142.359695 
	C299.809937,137.052338 301.178680,131.827942 302.411011,126.599991 
	C302.554779,125.989944 303.597351,125.591751 304.602753,125.044281 
	C302.126343,135.100357 300.338654,145.683258 296.109619,155.178848 
	C292.002136,164.401596 283.065582,167.835785 272.432434,166.929520 
z"/>
<path fill="#FDF9F0" opacity="1.000000" stroke="none" 
	d="
M225.556412,103.075386 
	C223.684219,103.785538 221.384628,104.720924 219.023361,104.918159 
	C215.872116,105.181389 213.872818,105.137863 214.433334,109.683640 
	C214.961823,113.969696 213.996674,118.625641 212.794662,122.865433 
	C212.138535,125.179741 209.628113,126.968346 207.600342,129.008698 
	C208.915619,121.287209 210.448578,113.516594 212.392761,105.850266 
	C212.701843,104.631462 214.769638,103.249985 216.182831,103.046928 
	C219.099121,102.627914 222.122330,102.952995 225.556412,103.075386 
z"/>
<path fill="#FDF9F0" opacity="1.000000" stroke="none" 
	d="
M305.419800,122.775620 
	C304.003082,120.155884 302.919769,117.153625 301.551117,114.287605 
	C299.009766,108.965790 293.902802,106.591026 289.059631,103.531372 
	C298.690033,102.948280 307.280762,111.949432 305.419800,122.775620 
z"/>
<path fill="#FDF9F0" opacity="1.000000" stroke="none" 
	d="
M257.324829,167.006958 
	C257.312012,166.420578 257.631287,165.925186 257.950531,165.429779 
	C258.274475,165.730148 258.598450,166.030502 258.964844,166.617447 
	C258.557159,166.968658 258.106995,167.033295 257.324829,167.006958 
z"/>
<path fill="#FDFEFD" opacity="1.000000" stroke="none" 
	d="
M54.845425,131.930786 
	C54.879776,131.498199 54.914127,131.065613 55.420502,130.269440 
	C56.499264,129.389877 57.412830,128.990829 57.661411,128.338409 
	C58.972107,124.898476 59.081158,120.794540 63.225941,119.017036 
	C63.518429,118.891594 63.782986,118.072937 63.662220,117.708679 
	C62.387100,113.862602 65.619354,113.411049 67.780548,112.198242 
	C69.052841,111.484268 70.954475,111.268578 71.627739,110.221146 
	C74.170807,106.264771 77.857811,105.715660 82.165863,106.319397 
	C83.226196,107.375336 84.033394,108.571869 85.014542,108.737427 
	C90.318687,109.632378 95.649071,110.707214 101.001595,110.914474 
	C114.677284,111.444038 128.369095,111.579704 142.055984,111.744499 
	C142.899765,111.754654 143.756958,110.651512 144.607910,110.066360 
	C143.966583,109.411423 143.424530,108.392090 142.661407,108.184151 
	C141.415085,107.844574 140.024673,108.005295 138.695038,108.004456 
	C126.549301,107.996826 114.403549,108.007599 102.257828,107.993057 
	C99.959663,107.990311 97.351875,108.441124 97.381096,104.825439 
	C106.036942,104.441338 114.308228,104.119888 122.581985,104.032082 
	C132.894897,103.922623 143.209854,104.005798 152.912994,104.005798 
	C158.565201,114.491570 144.304962,113.232033 144.587524,120.353851 
	C144.607666,120.861580 142.820938,121.469246 141.843353,121.969963 
	C141.572006,122.108940 141.188599,122.023407 140.857620,122.052505 
	C133.465118,122.702629 126.061752,123.255020 118.687813,124.072784 
	C116.744095,124.288345 114.891403,125.324699 112.996910,125.984146 
	C107.983543,126.101624 102.970169,126.219093 97.224106,125.922829 
	C91.043968,124.787170 85.606644,123.721992 80.142654,123.560860 
	C78.584587,123.514915 76.447418,125.819672 75.500160,127.551941 
	C74.669724,129.070541 74.958931,131.307953 75.070557,133.209229 
	C75.223381,135.812256 75.676033,138.397675 76.000183,140.990646 
	C75.986740,141.733292 75.973289,142.475952 75.775711,143.786850 
	C77.195351,145.145187 78.750664,146.446213 80.414391,146.603973 
	C82.828865,146.832932 85.320465,146.039490 87.781181,146.025116 
	C100.094879,145.953186 112.410141,145.917648 124.722435,146.067810 
	C126.782845,146.092926 128.831345,147.094193 130.885345,147.644409 
	C129.500015,150.120422 128.394165,152.832840 126.595642,154.959396 
	C125.846786,155.844803 123.621674,155.481674 122.825333,155.586533 
	C121.363503,158.278183 120.600685,161.944702 118.796669,162.560364 
	C114.242516,164.114609 109.199730,164.187012 104.392853,165.071228 
	C101.869225,165.535431 99.429855,166.457687 96.952431,167.173080 
	C92.268654,167.247009 87.584877,167.320923 82.451859,166.992676 
	C82.002113,166.391129 82.001617,166.191788 81.956085,165.633667 
	C80.407089,162.738724 78.846390,161.245010 76.666275,165.007904 
	C75.888733,165.008087 75.444435,165.007858 74.940994,164.649414 
	C72.608032,163.195267 70.325775,161.179779 68.062187,161.200531 
	C63.749298,161.240082 62.656597,159.628372 62.872620,155.675949 
	C62.958485,154.104950 61.708519,152.460953 61.066708,150.850174 
	C60.460384,150.957489 59.854057,151.064789 59.247734,151.172104 
	C58.952934,154.016205 58.658138,156.860306 58.363338,159.704422 
	C57.861275,159.872131 57.359211,160.039841 56.857147,160.207550 
	C56.270535,158.602478 55.166431,156.981644 55.214764,155.395935 
	C55.293476,152.813339 56.476341,150.255035 56.486134,147.683792 
	C56.490807,146.457016 54.870327,145.224060 53.995796,143.600616 
	C54.285561,139.448502 54.565491,135.689636 54.845425,131.930786 
z"/>
<path fill="#E9F9FA" opacity="1.000000" stroke="none" 
	d="
M113.457977,126.078751 
	C114.891403,125.324699 116.744095,124.288345 118.687813,124.072784 
	C126.061752,123.255020 133.465118,122.702629 140.857620,122.052505 
	C141.188599,122.023407 141.572006,122.108940 141.843353,121.969963 
	C142.820938,121.469246 144.607666,120.861580 144.587524,120.353851 
	C144.304962,113.232033 158.565201,114.491570 152.912994,104.005798 
	C143.209854,104.005798 132.894897,103.922623 122.581985,104.032082 
	C114.308228,104.119888 106.036942,104.441338 96.916077,104.825424 
	C91.376068,105.322548 86.684547,105.653358 81.993019,105.984161 
	C77.857811,105.715660 74.170807,106.264771 71.627739,110.221146 
	C70.954475,111.268578 69.052841,111.484268 67.780548,112.198242 
	C65.619354,113.411049 62.387100,113.862602 63.662220,117.708679 
	C63.782986,118.072937 63.518429,118.891594 63.225941,119.017036 
	C59.081158,120.794540 58.972107,124.898476 57.661411,128.338409 
	C57.412830,128.990829 56.499264,129.389877 55.542439,129.964996 
	C56.060448,122.145569 59.178535,115.406143 65.433716,109.885391 
	C72.587883,103.930771 80.723343,102.622009 89.454346,102.697113 
	C111.082581,102.883148 132.713440,102.763931 154.343246,102.767288 
	C155.973694,102.767540 157.604126,102.767319 159.251297,102.767319 
	C158.768448,113.769379 147.262985,125.234856 135.870804,125.955269 
	C128.578110,126.416443 121.237938,126.126549 113.457977,126.078751 
z"/>
<path fill="#E9F9FA" opacity="1.000000" stroke="none" 
	d="
M97.412674,167.296310 
	C99.429855,166.457687 101.869225,165.535431 104.392853,165.071228 
	C109.199730,164.187012 114.242516,164.114609 118.796669,162.560364 
	C120.600685,161.944702 121.363503,158.278183 122.825333,155.586533 
	C123.621674,155.481674 125.846786,155.844803 126.595642,154.959396 
	C128.394165,152.832840 129.500015,150.120422 130.885345,147.644409 
	C128.831345,147.094193 126.782845,146.092926 124.722435,146.067810 
	C112.410141,145.917648 100.094879,145.953186 87.781181,146.025116 
	C85.320465,146.039490 82.828865,146.832932 80.414391,146.603973 
	C78.750664,146.446213 77.195351,145.145187 75.846916,144.152863 
	C96.009827,143.999832 115.917404,144.049042 136.270111,144.165665 
	C135.190033,151.133820 131.494095,156.677521 125.947723,161.456329 
	C117.320168,167.797470 107.667603,167.957397 97.412674,167.296310 
z"/>
<path fill="#E9F9FA" opacity="1.000000" stroke="none" 
	d="
M76.234467,140.680405 
	C75.676033,138.397675 75.223381,135.812256 75.070557,133.209229 
	C74.958931,131.307953 74.669724,129.070541 75.500160,127.551941 
	C76.447418,125.819672 78.584587,123.514915 80.142654,123.560860 
	C85.606644,123.721992 91.043968,124.787170 96.766136,125.834709 
	C92.608871,126.261116 88.169510,126.559395 83.747459,126.394203 
	C80.730911,126.281525 79.236740,127.172623 78.770546,130.288773 
	C78.262001,133.687943 77.257217,137.012878 76.234467,140.680405 
z"/>
<path fill="#FDFEFC" opacity="1.000000" stroke="none" 
	d="
M53.985970,143.993896 
	C54.870327,145.224060 56.490807,146.457016 56.486134,147.683792 
	C56.476341,150.255035 55.293476,152.813339 55.214764,155.395935 
	C55.166431,156.981644 56.270535,158.602478 56.857147,160.207550 
	C57.359211,160.039841 57.861275,159.872131 58.363338,159.704422 
	C58.658138,156.860306 58.952934,154.016205 59.247734,151.172104 
	C59.854057,151.064789 60.460384,150.957489 61.066708,150.850174 
	C61.708519,152.460953 62.958485,154.104950 62.872620,155.675949 
	C62.656597,159.628372 63.749298,161.240082 68.062187,161.200531 
	C70.325775,161.179779 72.608032,163.195267 74.687286,164.838684 
	C74.331604,165.986282 74.170486,166.586380 74.009369,167.186493 
	C73.279327,167.254684 72.549301,167.322876 71.270828,167.029037 
	C66.917603,166.326111 64.903206,167.540527 65.937149,171.814713 
	C66.257111,173.137375 65.996185,174.600555 65.563797,175.999619 
	C64.149048,176.000061 63.110905,175.788315 62.207870,176.047424 
	C60.633427,176.499176 59.035805,177.077652 57.680702,177.960388 
	C57.272167,178.226532 57.469315,180.421585 57.668888,180.465668 
	C59.421806,180.852798 61.237045,180.964371 63.036522,181.127838 
	C63.351723,181.156479 63.679539,181.046295 64.001801,181.402527 
	C64.710930,187.153503 59.891804,188.631912 57.029400,191.287384 
	C59.229786,196.009399 59.193806,196.018219 55.159645,198.448425 
	C53.752583,199.296066 52.307602,200.207657 51.189667,201.384323 
	C47.966751,204.776581 44.764282,205.783569 40.927895,201.547165 
	C43.249649,191.204971 45.629837,180.602493 48.392872,170.007202 
	C50.596397,170.334167 52.417072,170.653976 54.486336,171.017441 
	C53.921955,168.609940 53.517658,166.885330 53.075691,165.000000 
	C51.608162,165.000000 50.309464,165.000000 49.049988,164.623489 
	C50.347256,160.756592 52.064411,157.347931 52.705116,153.747681 
	C53.146755,151.265991 52.098083,148.519089 51.715450,145.890717 
	C51.746601,145.463425 51.777752,145.036118 52.253197,144.306625 
	C53.126980,144.000916 53.556473,143.997406 53.985970,143.993896 
M49.067402,197.816132 
	C50.021011,196.515533 50.974621,195.214935 51.928230,193.914337 
	C51.482559,193.464813 51.036892,193.015289 50.591225,192.565765 
	C48.747715,193.893463 46.904205,195.221176 43.905216,197.381058 
	C46.480167,197.708527 47.413021,197.827164 49.067402,197.816132 
M62.650841,166.594116 
	C61.819176,165.812393 60.987514,165.030685 60.155849,164.248962 
	C59.847904,164.879852 59.539959,165.510727 59.232014,166.141617 
	C60.340679,166.519882 61.449345,166.898132 62.650841,166.594116 
z"/>
<path fill="#E9F9FA" opacity="1.000000" stroke="none" 
	d="
M66.001221,175.999390 
	C65.996185,174.600555 66.257111,173.137375 65.937149,171.814713 
	C64.903206,167.540527 66.917603,166.326111 70.909203,166.949890 
	C69.397308,173.261780 67.536964,179.250900 66.036797,185.328918 
	C63.629963,195.080322 57.823212,201.986832 48.738934,205.915085 
	C45.365162,207.373993 41.499973,207.696472 36.889812,208.760941 
	C41.877716,187.203613 46.586243,166.853745 51.505108,146.197296 
	C52.098083,148.519089 53.146755,151.265991 52.705116,153.747681 
	C52.064411,157.347931 50.347256,160.756592 49.006920,164.988220 
	C48.619759,167.152969 48.314892,168.576492 48.010025,170.000015 
	C45.629837,180.602493 43.249649,191.204971 40.927895,201.547165 
	C44.764282,205.783569 47.966751,204.776581 51.189667,201.384323 
	C52.307602,200.207657 53.752583,199.296066 55.159645,198.448425 
	C59.193806,196.018219 59.229786,196.009399 57.029400,191.287384 
	C59.891804,188.631912 64.710930,187.153503 64.037987,181.059647 
	C64.716339,178.876083 65.358780,177.437744 66.001221,175.999390 
z"/>
<path fill="#E9F9FA" opacity="1.000000" stroke="none" 
	d="
M53.995796,143.600616 
	C53.556473,143.997406 53.126980,144.000916 52.375221,144.006851 
	C52.830158,140.182739 53.607357,136.356186 54.614990,132.230225 
	C54.565491,135.689636 54.285561,139.448502 53.995796,143.600616 
z"/>
<path fill="#E9F9FA" opacity="1.000000" stroke="none" 
	d="
M74.439789,167.308762 
	C74.170486,166.586380 74.331604,165.986282 74.746429,165.196899 
	C75.444435,165.007858 75.888733,165.008087 77.004562,165.154556 
	C79.117760,165.531342 80.559441,165.761902 82.001129,165.992462 
	C82.001617,166.191788 82.002113,166.391129 81.993950,166.889709 
	C79.613586,167.269623 77.241898,167.350327 74.439789,167.308762 
z"/>
<path fill="#206A9D" opacity="1.000000" stroke="none" 
	d="
M479.004517,252.184250 
	C478.919617,245.566833 479.019928,239.121002 479.260345,232.292740 
	C482.184631,231.925858 485.125519,231.389313 487.706390,232.121567 
	C490.010254,232.775253 491.916473,234.830505 494.082703,236.639099 
	C493.849854,238.737762 493.532410,240.464600 493.002350,242.429291 
	C491.843567,243.255127 490.897430,243.843109 489.894653,244.466293 
	C490.984406,246.594360 491.942291,248.465012 493.057373,250.642593 
	C491.697449,250.825851 490.744202,250.954315 489.424988,251.007874 
	C489.059052,250.932983 489.026031,250.964767 489.022675,250.696991 
	C488.760437,250.200516 488.501556,249.971848 488.242706,249.743164 
	C488.242706,249.743164 488.192261,249.865204 488.197205,249.527222 
	C487.856445,248.692780 487.510773,248.196304 487.165100,247.699860 
	C486.368866,246.406921 485.572632,245.113983 484.776428,243.821045 
	C484.228638,243.929535 483.680847,244.038040 483.133057,244.146545 
	C483.133057,246.128082 483.462494,248.190521 483.003632,250.059387 
	C482.747772,251.101562 481.180939,251.821869 479.815094,252.744858 
	C479.346741,252.653610 479.268219,252.504715 479.004517,252.184250 
M486.267395,240.890411 
	C487.488373,239.692596 488.709351,238.494797 489.930328,237.296982 
	C487.966644,236.364899 486.002991,235.432831 484.039307,234.500748 
	C483.485107,235.110962 482.930908,235.721161 482.376678,236.331375 
	C483.397736,237.853363 484.418823,239.375351 486.267395,240.890411 
z"/>
<path fill="#BBE5F3" opacity="1.000000" stroke="none" 
	d="
M487.143860,248.040482 
	C487.510773,248.196304 487.856445,248.692780 488.255554,249.496338 
	C487.913544,249.329346 487.518097,248.855225 487.143860,248.040482 
z"/>
<path fill="#BBE5F3" opacity="1.000000" stroke="none" 
	d="
M488.265320,250.010559 
	C488.501556,249.971848 488.760437,250.200516 489.043823,250.697739 
	C488.808167,250.736832 488.548035,250.507385 488.265320,250.010559 
z"/>
<path fill="#EB7731" opacity="1.000000" stroke="none" 
	d="
M241.007126,125.894989 
	C251.030151,125.966400 261.053192,126.037811 271.970093,126.123360 
	C275.456268,126.137489 278.048523,126.137489 281.137909,126.137489 
	C280.193237,130.902588 279.288574,134.743942 278.700684,138.633148 
	C278.106659,142.562805 276.366455,144.123352 272.103088,143.997299 
	C261.140350,143.673111 250.161026,143.909302 239.188324,143.919525 
	C235.574875,143.922897 231.961426,143.920059 227.683746,143.920059 
	C228.234207,141.080856 228.596802,139.016724 229.037643,136.969421 
	C231.221405,126.828445 231.228699,126.830017 241.007126,125.894989 
z"/>
<path fill="#FDF9F0" opacity="1.000000" stroke="none" 
	d="
M240.907120,125.511887 
	C231.228699,126.830017 231.221405,126.828445 229.037643,136.969421 
	C228.596802,139.016724 228.234207,141.080856 227.683746,143.920059 
	C231.961426,143.920059 235.574875,143.922897 239.188324,143.919525 
	C250.161026,143.909302 261.140350,143.673111 272.103088,143.997299 
	C276.366455,144.123352 278.106659,142.562805 278.700684,138.633148 
	C279.288574,134.743942 280.193237,130.902588 281.137909,126.137489 
	C278.048523,126.137489 275.456268,126.137489 272.428528,126.019241 
	C276.223083,121.884483 282.418365,123.520378 284.766388,129.510574 
	C278.384216,133.102249 282.607330,140.324722 278.911560,145.577728 
	C278.646271,145.628845 277.703003,145.967102 276.759003,145.969131 
	C260.767792,146.003510 244.776367,146.024963 228.785202,145.978607 
	C224.555237,145.966354 223.116974,144.016525 224.349869,140.516800 
	C225.595673,136.980408 227.347565,133.454681 227.696167,129.811234 
	C228.157623,124.988342 230.240189,123.305099 234.744247,124.011528 
	C236.773697,124.329834 238.786667,124.753128 240.907120,125.511887 
z"/>
<path fill="#FDF9F0" opacity="1.000000" stroke="none" 
	d="
M270.998627,109.002441 
	C277.095032,109.002441 282.691895,109.002441 288.288757,109.002441 
	C288.284943,109.443153 288.281128,109.883858 288.277283,110.324570 
	C267.764130,110.324570 247.250961,110.324570 226.737793,110.324570 
	C226.726456,109.883858 226.715118,109.443153 226.703796,109.002441 
	C241.302216,109.002441 255.900650,109.002441 270.998627,109.002441 
z"/>
<path fill="#FEFAFE" opacity="1.000000" stroke="none" 
	d="
M207.800873,195.730682 
	C202.416870,203.769348 197.945328,205.654175 192.353943,202.493149 
	C193.807617,200.859024 195.248993,199.238724 196.843964,197.311035 
	C200.577667,196.805298 203.544296,192.401794 207.800873,195.730682 
z"/>
<path fill="#FDF9F0" opacity="1.000000" stroke="none" 
	d="
M280.512421,117.331253 
	C279.479736,121.964272 276.910828,119.045670 274.924988,118.619278 
	C274.649170,118.560059 274.691498,117.019119 274.586548,116.164108 
	C276.509644,116.444176 278.432770,116.724243 280.512421,117.331253 
z"/>
<path fill="#FDF9F0" opacity="1.000000" stroke="none" 
	d="
M226.946243,119.102264 
	C227.526413,120.169945 227.735916,121.247765 227.945419,122.325577 
	C227.197723,122.394142 226.450043,122.462708 225.702347,122.531265 
	C225.993423,121.391640 226.284500,120.252022 226.946243,119.102264 
z"/>
<path fill="#FDF9F0" opacity="1.000000" stroke="none" 
	d="
M220.668976,109.136421 
	C220.771408,110.019066 220.546082,110.831123 220.320740,111.643188 
	C219.708618,111.258530 219.096497,110.873871 218.484375,110.489212 
	C219.103317,110.014755 219.722275,109.540298 220.668976,109.136421 
z"/>
<path fill="#FDF9F0" opacity="1.000000" stroke="none" 
	d="
M290.581024,149.862320 
	C290.733093,151.245621 290.663727,152.362396 290.594391,153.479156 
	C290.062134,153.360718 289.529907,153.242264 288.997681,153.123810 
	C289.451660,151.947800 289.905640,150.771790 290.581024,149.862320 
z"/>
<path fill="#FDF9F0" opacity="1.000000" stroke="none" 
	d="
M214.857300,163.169907 
	C215.042969,162.363007 215.450409,161.786545 215.857849,161.210083 
	C216.321228,161.954849 216.784607,162.699615 217.247986,163.444366 
	C216.525024,163.429688 215.802048,163.415009 214.857300,163.169907 
z"/>
<path fill="#FDF9F0" opacity="1.000000" stroke="none" 
	d="
M239.954590,120.595505 
	C239.716919,120.205582 239.718796,119.817818 239.748703,119.432236 
	C239.749542,119.421440 240.050140,119.433891 240.210938,119.435493 
	C240.206650,119.822990 240.202362,120.210487 239.954590,120.595505 
z"/>
<path fill="#FDF9F0" opacity="1.000000" stroke="none" 
	d="
M201.458466,189.615906 
	C201.344147,190.057938 201.063324,190.326065 200.782501,190.594177 
	C200.671509,190.477921 200.560532,190.361664 200.449554,190.245422 
	C200.730347,189.977615 201.011139,189.709824 201.458466,189.615906 
z"/>
<path fill="#FBFFFA" opacity="1.000000" stroke="none" 
	d="
M82.165863,106.319397 
	C86.684547,105.653358 91.376068,105.322548 96.532608,104.991753 
	C97.351875,108.441124 99.959663,107.990311 102.257828,107.993057 
	C114.403549,108.007599 126.549301,107.996826 138.695038,108.004456 
	C140.024673,108.005295 141.415085,107.844574 142.661407,108.184151 
	C143.424530,108.392090 143.966583,109.411423 144.607910,110.066360 
	C143.756958,110.651512 142.899765,111.754654 142.055984,111.744499 
	C128.369095,111.579704 114.677284,111.444038 101.001595,110.914474 
	C95.649071,110.707214 90.318687,109.632378 85.014542,108.737427 
	C84.033394,108.571869 83.226196,107.375336 82.165863,106.319397 
z"/>
<path fill="#FDFEFC" opacity="1.000000" stroke="none" 
	d="
M81.956085,165.633682 
	C80.559441,165.761902 79.117760,165.531342 77.337799,165.154144 
	C78.846390,161.245010 80.407089,162.738724 81.956085,165.633682 
z"/>
<path fill="#FDFEFD" opacity="1.000000" stroke="none" 
	d="
M65.563797,175.999619 
	C65.358780,177.437744 64.716339,178.876083 64.037712,180.657318 
	C63.679539,181.046295 63.351723,181.156479 63.036522,181.127838 
	C61.237045,180.964371 59.421806,180.852798 57.668888,180.465668 
	C57.469315,180.421585 57.272167,178.226532 57.680702,177.960388 
	C59.035805,177.077652 60.633427,176.499176 62.207870,176.047424 
	C63.110905,175.788315 64.149048,176.000061 65.563797,175.999619 
z"/>
<path fill="#FDFEFD" opacity="1.000000" stroke="none" 
	d="
M48.392876,170.007202 
	C48.314892,168.576492 48.619759,167.152969 48.967697,165.364716 
	C50.309464,165.000000 51.608162,165.000000 53.075691,165.000000 
	C53.517658,166.885330 53.921955,168.609940 54.486336,171.017441 
	C52.417072,170.653976 50.596397,170.334167 48.392876,170.007202 
z"/>
<path fill="#E9F9FA" opacity="1.000000" stroke="none" 
	d="
M48.706638,197.880951 
	C47.413021,197.827164 46.480167,197.708527 43.905216,197.381058 
	C46.904205,195.221176 48.747715,193.893463 50.591225,192.565765 
	C51.036892,193.015289 51.482559,193.464813 51.928230,193.914337 
	C50.974621,195.214935 50.021011,196.515533 48.706638,197.880951 
z"/>
<path fill="#FDFEFD" opacity="1.000000" stroke="none" 
	d="
M62.604424,166.935242 
	C61.449345,166.898132 60.340679,166.519882 59.232014,166.141617 
	C59.539959,165.510727 59.847904,164.879852 60.155849,164.248962 
	C60.987514,165.030685 61.819176,165.812393 62.604424,166.935242 
z"/>
<path fill="#C9ECFB" opacity="1.000000" stroke="none" 
	d="
M485.853638,240.893875 
	C484.418823,239.375351 483.397736,237.853363 482.376678,236.331375 
	C482.930908,235.721161 483.485107,235.110962 484.039307,234.500748 
	C486.002991,235.432831 487.966644,236.364899 489.930328,237.296982 
	C488.709351,238.494797 487.488373,239.692596 485.853638,240.893875 
z"/>
</svg>